<?xml version="1.0" encoding="UTF-8"?>
<svg xmlns="http://www.w3.org/2000/svg" xmlns:xlink="http://www.w3.org/1999/xlink" width="55pt" height="55pt" viewBox="0 0 55 55" version="1.1">
<g id="surface224046">
<path style=" stroke:none;fill-rule:nonzero;fill:rgb(100%,100%,100%);fill-opacity:1;" d="M 9.898438 4.398438 C 6.875 4.398438 4.398438 6.875 4.398438 9.898438 L 4.398438 45.101562 C 4.398438 48.125 6.875 50.601562 9.898438 50.601562 L 45.101562 50.601562 C 48.125 50.601562 50.601562 48.125 50.601562 45.101562 L 50.601562 9.898438 C 50.601562 6.875 48.125 4.398438 45.101562 4.398438 Z M 9.898438 6.601562 L 45.101562 6.601562 C 46.933594 6.601562 48.398438 8.066406 48.398438 9.898438 L 48.398438 45.101562 C 48.398438 46.933594 46.933594 48.398438 45.101562 48.398438 L 9.898438 48.398438 C 8.066406 48.398438 6.601562 46.933594 6.601562 45.101562 L 6.601562 9.898438 C 6.601562 8.066406 8.066406 6.601562 9.898438 6.601562 Z M 25.734375 17.589844 C 24.574219 17.589844 23.535156 17.652344 22.609375 18.109375 C 22.605469 18.109375 22.605469 18.109375 22.605469 18.113281 C 22.152344 18.335938 21.835938 18.617188 21.582031 18.953125 C 21.453125 19.121094 21.324219 19.273438 21.253906 19.65625 C 21.21875 19.847656 21.199219 20.160156 21.402344 20.492188 C 21.601562 20.828125 22.003906 21.019531 22.261719 21.054688 C 22.441406 21.078125 22.84375 21.25 22.882812 21.300781 C 22.882812 21.304688 22.882812 21.304688 22.886719 21.304688 C 22.886719 21.304688 23.042969 21.714844 23.085938 22.078125 C 23.132812 22.445312 23.128906 22.738281 23.128906 22.738281 C 23.128906 22.769531 23.128906 22.796875 23.132812 22.828125 C 23.132812 22.828125 23.195312 23.78125 23.152344 24.765625 C 23.136719 25.160156 23.085938 25.507812 23.035156 25.820312 C 22.640625 25.390625 22.066406 24.605469 21.230469 23.164062 C 20.304688 21.558594 19.570312 20.121094 19.570312 20.121094 C 19.53125 19.996094 19.394531 19.609375 18.859375 19.214844 C 18.277344 18.785156 17.714844 18.722656 17.714844 18.722656 C 17.644531 18.707031 17.570312 18.699219 17.5 18.699219 L 13.164062 18.703125 C 13.164062 18.703125 12.902344 18.6875 12.59375 18.730469 C 12.28125 18.773438 11.8125 18.808594 11.359375 19.34375 C 11.359375 19.34375 11.355469 19.347656 11.355469 19.347656 C 10.953125 19.828125 10.976562 20.363281 11.027344 20.664062 C 11.074219 20.96875 11.183594 21.195312 11.183594 21.195312 C 11.1875 21.199219 11.1875 21.207031 11.191406 21.210938 C 11.191406 21.210938 14.738281 28.664062 18.746094 33.054688 C 21.65625 36.242188 24.640625 36.296875 27.105469 36.296875 L 28.945312 36.296875 C 29.414062 36.296875 29.839844 36.28125 30.308594 36.003906 C 30.78125 35.730469 31.097656 35.066406 31.097656 34.601562 C 31.097656 34.117188 31.167969 33.738281 31.257812 33.542969 C 31.320312 33.402344 31.371094 33.355469 31.445312 33.3125 C 31.464844 33.324219 31.453125 33.316406 31.5 33.351562 C 31.679688 33.480469 31.984375 33.773438 32.3125 34.140625 C 32.96875 34.871094 33.714844 35.875 34.71875 36.5625 C 35.4375 37.058594 36.113281 37.277344 36.628906 37.355469 C 36.953125 37.40625 37.203125 37.398438 37.382812 37.382812 L 41.492188 37.398438 C 41.515625 37.398438 41.539062 37.398438 41.5625 37.398438 C 41.5625 37.398438 42.269531 37.40625 43.007812 36.964844 C 43.375 36.746094 43.808594 36.328125 43.949219 35.71875 C 44.089844 35.109375 43.914062 34.480469 43.566406 33.90625 C 43.566406 33.902344 43.566406 33.902344 43.566406 33.902344 C 43.628906 34.003906 43.515625 33.796875 43.394531 33.605469 C 43.277344 33.414062 43.109375 33.15625 42.863281 32.835938 C 42.375 32.195312 41.589844 31.300781 40.320312 30.121094 C 39.675781 29.523438 39.242188 29.097656 39.0625 28.863281 C 38.882812 28.625 38.941406 28.75 38.957031 28.691406 C 38.980469 28.570312 39.753906 27.457031 41.324219 25.355469 C 42.28125 24.078125 42.953125 23.117188 43.394531 22.320312 C 43.835938 21.523438 44.15625 20.832031 43.933594 19.984375 C 43.933594 19.984375 43.933594 19.980469 43.929688 19.980469 C 43.832031 19.609375 43.5625 19.265625 43.285156 19.082031 C 43.011719 18.894531 42.746094 18.820312 42.511719 18.773438 C 42.042969 18.683594 41.632812 18.699219 41.253906 18.699219 C 40.457031 18.699219 36.917969 18.726562 36.628906 18.726562 C 36.285156 18.726562 35.714844 18.882812 35.464844 19.035156 C 34.832031 19.414062 34.648438 19.917969 34.648438 19.917969 C 34.636719 19.9375 34.628906 19.957031 34.617188 19.980469 C 34.617188 19.980469 33.886719 21.597656 32.949219 23.195312 C 31.996094 24.816406 31.292969 25.589844 30.867188 25.949219 C 30.855469 25.886719 30.859375 25.9375 30.851562 25.847656 C 30.8125 25.394531 30.855469 24.769531 30.855469 24.160156 C 30.855469 22.515625 30.996094 21.363281 30.921875 20.347656 C 30.882812 19.839844 30.789062 19.316406 30.453125 18.832031 C 30.121094 18.351562 29.5625 18.039062 29.011719 17.90625 C 28.683594 17.824219 28.304688 17.617188 26.945312 17.605469 C 26.941406 17.605469 26.941406 17.605469 26.941406 17.605469 C 26.523438 17.601562 26.125 17.59375 25.734375 17.589844 Z M 26.921875 19.804688 C 28.125 19.816406 27.824219 19.882812 28.496094 20.046875 C 28.703125 20.09375 28.652344 20.09375 28.648438 20.089844 C 28.640625 20.082031 28.703125 20.195312 28.726562 20.511719 C 28.773438 21.144531 28.65625 22.402344 28.65625 24.160156 C 28.65625 24.636719 28.597656 25.320312 28.65625 26.03125 C 28.71875 26.746094 28.894531 27.65625 29.746094 28.210938 C 30.148438 28.46875 30.617188 28.488281 31.015625 28.386719 C 31.417969 28.289062 31.78125 28.082031 32.164062 27.773438 C 32.925781 27.164062 33.777344 26.132812 34.84375 24.3125 C 35.84375 22.613281 36.574219 20.992188 36.597656 20.9375 C 36.601562 20.933594 36.605469 20.933594 36.613281 20.929688 C 36.625 20.929688 36.609375 20.929688 36.628906 20.929688 C 37.039062 20.929688 40.511719 20.898438 41.253906 20.898438 C 41.425781 20.898438 41.492188 20.910156 41.628906 20.914062 C 41.589844 21.039062 41.632812 20.960938 41.46875 21.253906 C 41.128906 21.871094 40.496094 22.789062 39.5625 24.035156 C 38.03125 26.082031 37.082031 26.886719 36.800781 28.246094 C 36.660156 28.925781 36.921875 29.679688 37.308594 30.1875 C 37.691406 30.695312 38.179688 31.132812 38.824219 31.730469 C 40.015625 32.84375 40.714844 33.652344 41.117188 34.175781 C 41.316406 34.4375 41.445312 34.628906 41.523438 34.753906 C 41.601562 34.882812 41.582031 34.871094 41.683594 35.039062 C 41.75 35.152344 41.726562 35.082031 41.738281 35.117188 C 41.605469 35.152344 41.445312 35.199219 41.4375 35.199219 L 37.390625 35.183594 C 37.320312 35.183594 37.246094 35.191406 37.175781 35.203125 C 37.175781 35.203125 37.183594 35.214844 36.96875 35.183594 C 36.75 35.148438 36.40625 35.054688 35.964844 34.75 C 35.429688 34.382812 34.683594 33.484375 33.949219 32.667969 C 33.582031 32.261719 33.21875 31.867188 32.765625 31.550781 C 32.308594 31.230469 31.628906 30.929688 30.898438 31.160156 C 30.136719 31.398438 29.542969 31.996094 29.253906 32.632812 C 29.039062 33.109375 29.019531 33.605469 28.988281 34.097656 C 28.949219 34.101562 28.992188 34.097656 28.945312 34.097656 L 27.105469 34.097656 C 24.609375 34.097656 22.832031 34.269531 20.371094 31.570312 C 17.054688 27.941406 14.015625 21.898438 13.523438 20.902344 L 17.339844 20.898438 C 17.40625 20.925781 17.546875 20.980469 17.558594 20.984375 C 17.558594 20.988281 17.558594 20.988281 17.5625 20.988281 C 17.421875 20.886719 17.566406 21.03125 17.566406 21.03125 C 17.582031 21.0625 17.597656 21.097656 17.613281 21.128906 C 17.613281 21.128906 18.367188 22.605469 19.324219 24.261719 C 20.261719 25.886719 20.945312 26.902344 21.605469 27.574219 C 21.9375 27.910156 22.269531 28.175781 22.714844 28.328125 C 23.160156 28.480469 23.734375 28.425781 24.121094 28.214844 C 24.914062 27.78125 25.019531 27.144531 25.148438 26.585938 C 25.277344 26.027344 25.328125 25.429688 25.351562 24.863281 C 25.398438 23.757812 25.332031 22.800781 25.328125 22.742188 C 25.328125 22.71875 25.332031 22.320312 25.269531 21.8125 C 25.207031 21.289062 25.132812 20.648438 24.660156 20.003906 L 24.65625 20 C 24.65625 19.996094 24.648438 19.996094 24.648438 19.992188 C 25.273438 19.902344 25.808594 19.792969 26.921875 19.804688 Z M 36.625 20.882812 L 36.609375 20.917969 C 36.605469 20.917969 36.609375 20.914062 36.605469 20.917969 C 36.609375 20.910156 36.625 20.882812 36.625 20.882812 Z M 36.625 20.882812 "/>
</g>
</svg>
