<?xml version="1.0" encoding="UTF-8"?>
<svg xmlns="http://www.w3.org/2000/svg" xmlns:xlink="http://www.w3.org/1999/xlink" width="96pt" height="96pt" viewBox="0 0 96 96" version="1.1">
<g id="surface1879974">
<path style=" stroke:none;fill-rule:nonzero;fill:rgb(9.803922%,46.27451%,82.352941%);fill-opacity:1;" d="M 94.800781 81.800781 C 94.800781 88.980469 88.980469 94.800781 81.800781 94.800781 L 14.199219 94.800781 C 7.019531 94.800781 1.199219 88.980469 1.199219 81.800781 L 1.199219 14.199219 C 1.199219 7.019531 7.019531 1.199219 14.199219 1.199219 L 81.800781 1.199219 C 88.980469 1.199219 94.800781 7.019531 94.800781 14.199219 Z M 94.800781 81.800781 "/>
<path style=" stroke:none;fill-rule:nonzero;fill:rgb(100%,100%,100%);fill-opacity:1;" d="M 79.035156 32.507812 C 79.15625 32.113281 79.214844 31.75 79.199219 31.425781 C 79.160156 30.484375 78.511719 29.800781 76.988281 29.800781 L 70.179688 29.800781 C 68.460938 29.800781 67.667969 30.839844 67.207031 31.882812 C 67.207031 31.882812 62.964844 40.617188 58.074219 46.375 C 56.488281 48.042969 55.679688 48 54.824219 48 C 54.363281 48 53.199219 47.445312 53.199219 45.917969 L 53.199219 32.4375 C 53.199219 30.632812 52.75 29.800781 51.296875 29.800781 L 39.210938 29.800781 C 38.152344 29.800781 37.601562 30.632812 37.601562 31.464844 C 37.601562 33.199219 39.933594 33.617188 40.199219 38.476562 L 40.199219 47.894531 C 40.199219 50.183594 39.800781 50.601562 38.945312 50.601562 C 36.628906 50.601562 32.074219 42.800781 29.023438 32.578125 C 28.363281 30.5625 27.703125 29.800781 25.984375 29.800781 L 19.113281 29.800781 C 17.128906 29.800781 16.800781 30.773438 16.800781 31.8125 C 16.800781 33.6875 18.359375 43.820312 26.875 55.476562 C 33.050781 63.925781 41.183594 68.800781 48.386719 68.800781 C 52.75 68.800781 53.199219 67.691406 53.199219 65.957031 L 53.199219 58.226562 C 53.199219 56.144531 53.675781 55.800781 55.0625 55.800781 C 56.054688 55.800781 58.074219 56.449219 61.976562 61 C 66.472656 66.246094 67.289062 68.800781 69.867188 68.800781 L 76.675781 68.800781 C 78.257812 68.800781 79.164062 68.136719 79.199219 66.851562 C 79.207031 66.523438 79.160156 66.15625 79.054688 65.746094 C 78.550781 64.25 76.234375 60.589844 73.351562 57.101562 C 71.75 55.167969 70.171875 53.253906 69.449219 52.214844 C 68.960938 51.535156 68.777344 51.058594 68.800781 50.601562 C 68.824219 50.117188 69.074219 49.660156 69.449219 49.023438 C 69.378906 49.023438 78.179688 36.667969 79.035156 32.507812 Z M 79.035156 32.507812 "/>
</g>
</svg>
