<?xml version="1.0" encoding="UTF-8"?>
<svg xmlns="http://www.w3.org/2000/svg" xmlns:xlink="http://www.w3.org/1999/xlink" width="50pt" height="50pt" viewBox="0 0 50 50" version="1.1">
<g id="surface236887">
<path style=" stroke:none;fill-rule:nonzero;fill:rgb(100%,100%,100%);fill-opacity:1;" d="M 12.40625 1 C 11.597656 1 10.902344 1.335938 10.21875 1.78125 C 9.535156 2.226562 8.855469 2.816406 8.25 3.46875 C 7.042969 4.773438 6 6.230469 6 7.8125 C 6 8.472656 6.339844 9.003906 6.75 9.40625 C 7.160156 9.808594 7.675781 10.121094 8.25 10.40625 C 9.398438 10.976562 10.839844 11.433594 12.40625 11.8125 C 12.703125 11.882812 13.007812 11.933594 13.3125 12 L 3 12 C 1.355469 12 0 13.355469 0 15 L 0 20 C 0 20.550781 0.449219 21 1 21 L 2 21 L 2 46 C 2 47.644531 3.355469 49 5 49 L 45 49 C 46.644531 49 48 47.644531 48 46 L 48 21 L 49 21 C 49.550781 21 50 20.550781 50 20 L 50 15 C 50 13.355469 48.644531 12 47 12 L 36.6875 12 C 36.992188 11.933594 37.296875 11.882812 37.59375 11.8125 C 39.160156 11.433594 40.601562 10.976562 41.75 10.40625 C 42.324219 10.121094 42.839844 9.808594 43.25 9.40625 C 43.660156 9.003906 44 8.472656 44 7.8125 C 44 6.230469 42.957031 4.773438 41.75 3.46875 C 41.144531 2.816406 40.464844 2.226562 39.78125 1.78125 C 39.097656 1.335938 38.402344 1 37.59375 1 C 36.570312 1 36.046875 1.660156 35.5 2.3125 C 34.953125 2.964844 34.402344 3.800781 33.75 4.65625 C 32.738281 5.980469 31.511719 7.375 30 8.34375 L 30 8 C 30 7.449219 29.550781 7 29 7 L 21 7 C 20.96875 7 20.9375 7 20.90625 7 C 20.390625 7.046875 19.996094 7.480469 20 8 L 20 8.34375 C 18.488281 7.375 17.261719 5.980469 16.25 4.65625 C 15.597656 3.800781 15.046875 2.964844 14.5 2.3125 C 13.953125 1.660156 13.429688 1 12.40625 1 Z M 12.34375 3.03125 C 12.363281 3.082031 12.632812 3.222656 12.96875 3.625 C 13.417969 4.160156 13.972656 4.949219 14.65625 5.84375 C 15.914062 7.492188 17.621094 9.449219 20 10.625 L 20 10.90625 C 18.199219 10.816406 15.414062 10.488281 12.875 9.875 C 11.390625 9.515625 10.039062 9.078125 9.125 8.625 C 8.667969 8.398438 8.332031 8.140625 8.15625 7.96875 C 7.980469 7.796875 8 7.777344 8 7.8125 C 8 7.394531 8.703125 5.941406 9.71875 4.84375 C 10.226562 4.296875 10.808594 3.796875 11.3125 3.46875 C 11.777344 3.167969 12.167969 3.050781 12.34375 3.03125 Z M 37.65625 3.03125 C 37.832031 3.050781 38.222656 3.167969 38.6875 3.46875 C 39.191406 3.796875 39.773438 4.296875 40.28125 4.84375 C 41.296875 5.941406 42 7.394531 42 7.8125 C 42 7.777344 42.019531 7.796875 41.84375 7.96875 C 41.667969 8.140625 41.332031 8.398438 40.875 8.625 C 39.960938 9.078125 38.609375 9.515625 37.125 9.875 C 34.585938 10.488281 31.800781 10.816406 30 10.90625 L 30 10.625 C 32.378906 9.449219 34.085938 7.492188 35.34375 5.84375 C 36.027344 4.949219 36.582031 4.160156 37.03125 3.625 C 37.367188 3.222656 37.636719 3.082031 37.65625 3.03125 Z M 22 9 L 28 9 L 28 9.78125 C 27.957031 9.945312 27.957031 10.117188 28 10.28125 L 28 11.6875 C 27.960938 11.789062 27.941406 11.894531 27.9375 12 L 22.125 12 C 22.117188 11.847656 22.074219 11.695312 22 11.5625 L 22 10.3125 C 22.082031 10.089844 22.082031 9.847656 22 9.625 Z M 3 14 L 47 14 C 47.554688 14 48 14.445312 48 15 L 48 19 L 2 19 L 2 15 C 2 14.445312 2.445312 14 3 14 Z M 4 21 L 46 21 L 46 46 C 46 46.554688 45.554688 47 45 47 L 5 47 C 4.445312 47 4 46.554688 4 46 Z M 21.5 26.03125 C 19.910156 26.03125 18.472656 26.574219 17.46875 27.5625 C 16.464844 28.550781 15.90625 29.949219 15.90625 31.5 C 15.90625 32.703125 16.53125 33.742188 17.3125 34.84375 C 18.09375 35.945312 19.117188 37.0625 20.125 38.09375 C 21.132812 39.125 22.121094 40.066406 22.90625 40.75 C 23.300781 41.089844 23.644531 41.359375 23.90625 41.5625 C 24.039062 41.664062 24.140625 41.738281 24.25 41.8125 C 24.304688 41.847656 24.363281 41.898438 24.4375 41.9375 C 24.511719 41.976562 24.492188 42.09375 25 42.09375 C 25.25 42.09375 25.496094 42.003906 25.6875 41.84375 C 25.6875 41.84375 27.738281 40.132812 29.78125 38.0625 C 30.804688 37.027344 31.824219 35.90625 32.625 34.8125 C 33.425781 33.71875 34.09375 32.714844 34.09375 31.5 C 34.09375 28.371094 31.601562 26.03125 28.5 26.03125 C 26.941406 26.03125 25.835938 26.78125 25 27.5 C 24.164062 26.78125 23.058594 26.03125 21.5 26.03125 Z M 21.5 28.1875 C 22.46875 28.1875 23.589844 29.027344 24.21875 29.65625 C 24.421875 29.867188 24.707031 29.988281 25 29.988281 C 25.292969 29.988281 25.578125 29.867188 25.78125 29.65625 C 26.410156 29.027344 27.53125 28.1875 28.5 28.1875 C 30.601562 28.1875 31.90625 29.429688 31.90625 31.5 C 31.90625 31.683594 31.574219 32.582031 30.875 33.53125 C 30.175781 34.480469 29.195312 35.539062 28.21875 36.53125 C 26.570312 38.199219 25.417969 39.183594 24.9375 39.59375 C 24.753906 39.445312 24.589844 39.304688 24.34375 39.09375 C 23.601562 38.449219 22.613281 37.574219 21.65625 36.59375 C 20.699219 35.613281 19.765625 34.546875 19.09375 33.59375 C 18.421875 32.640625 18.09375 31.746094 18.09375 31.5 C 18.09375 30.449219 18.429688 29.652344 19 29.09375 C 19.570312 28.535156 20.390625 28.1875 21.5 28.1875 Z M 21.5 28.1875 "/>
</g>
</svg>
