<?xml version="1.0" encoding="UTF-8"?>
<svg xmlns="http://www.w3.org/2000/svg" xmlns:xlink="http://www.w3.org/1999/xlink" width="50pt" height="50pt" viewBox="0 0 50 50" version="1.1">
<g id="surface254607">
<path style=" stroke:none;fill-rule:nonzero;fill:rgb(100%,100%,100%);fill-opacity:1;" d="M 26.777344 2.007812 C 25.78125 2.039062 24.726562 2.160156 23.609375 2.398438 C 18.96875 3.386719 16.242188 6.148438 14.773438 8.851562 C 13.539062 11.128906 13.152344 13.269531 13.046875 14.550781 C 10.886719 15.203125 9.21875 15.941406 8.054688 16.675781 C 7.4375 17.066406 6.953125 17.453125 6.589844 17.875 C 6.226562 18.292969 5.90625 18.800781 6.023438 19.488281 C 6.128906 20.117188 6.417969 20.242188 6.671875 20.433594 C 6.929688 20.625 7.230469 20.789062 7.613281 20.949219 C 8.378906 21.273438 9.453125 21.574219 10.910156 21.773438 C 11.171875 21.808594 11.457031 21.835938 11.738281 21.863281 C 10.089844 23.289062 9.042969 25.082031 8.503906 26.839844 C 7.816406 29.070312 7.929688 31.085938 8.53125 32.640625 C 7.082031 33.550781 6.191406 34.957031 6.039062 36.390625 C 5.902344 37.648438 6.074219 38.863281 6.609375 39.816406 C 6.421875 39.898438 6.183594 40 6.03125 40.0625 C 5.667969 40.222656 5.484375 40.292969 5.246094 40.4375 C 3.855469 41.257812 2.980469 42.328125 2.523438 43.484375 C 2.066406 44.636719 2 45.832031 2 47 L 2 48 L 43.976562 48 L 43.871094 46.90625 C 43.871094 46.90625 43.675781 45.109375 42.296875 42.921875 C 40.953125 40.789062 38.449219 38.191406 33.980469 36.121094 C 33.089844 35.582031 32.328125 35.046875 31.820312 34.425781 C 31.3125 33.808594 31.015625 33.121094 31.007812 32.046875 C 31.066406 31.253906 31.285156 30.820312 31.652344 30.519531 C 32.023438 30.214844 32.644531 30 33.625 30 C 34.578125 30 35.417969 29.976562 36.171875 29.835938 C 36.929688 29.695312 37.675781 29.410156 38.171875 28.753906 C 38.714844 28.035156 39.015625 27.160156 39.261719 26.320312 C 39.453125 25.660156 39.558594 25.144531 39.65625 24.695312 C 39.746094 24.640625 39.753906 24.644531 39.863281 24.574219 C 40.03125 24.464844 40.207031 24.34375 40.382812 24.1875 C 40.558594 24.035156 40.753906 23.878906 40.90625 23.503906 C 41.089844 23.058594 40.988281 22.757812 40.917969 22.53125 C 40.847656 22.304688 40.757812 22.117188 40.65625 21.914062 C 40.457031 21.511719 40.199219 21.078125 39.949219 20.597656 C 39.441406 19.644531 38.984375 18.539062 39 17.644531 C 39.039062 16.816406 39.125 16.066406 39.203125 15.519531 C 39.238281 15.285156 39.265625 15.105469 39.292969 14.953125 C 39.769531 14.664062 40.238281 14.375 40.683594 14.089844 C 42.824219 12.714844 44.59375 11.375 45.84375 10.28125 C 46.46875 9.734375 46.960938 9.25 47.324219 8.828125 C 47.503906 8.613281 47.652344 8.417969 47.777344 8.199219 C 47.898438 7.980469 48.070312 7.746094 47.984375 7.234375 C 47.921875 6.863281 47.671875 6.558594 47.449219 6.398438 C 47.226562 6.242188 47.023438 6.175781 46.828125 6.125 C 46.429688 6.019531 46.035156 6.003906 45.585938 6 C 44.6875 6 43.605469 6.113281 42.53125 6.261719 C 40.382812 6.558594 38.277344 6.996094 38.277344 6.996094 L 38.046875 7.046875 C 37.285156 6.113281 35.988281 4.789062 34.046875 3.710938 C 32.191406 2.6875 29.761719 1.925781 26.777344 2.007812 Z M 26.839844 4 C 29.453125 3.921875 31.496094 4.589844 33.078125 5.460938 C 34.855469 6.445312 36 7.683594 36.613281 8.460938 C 34.757812 10.246094 30.667969 13.628906 25.417969 14.566406 C 21.683594 15.234375 18.816406 15.1875 16.902344 14.984375 C 16.089844 14.898438 15.5 14.789062 15.046875 14.691406 C 15.144531 13.65625 15.492188 11.726562 16.53125 9.808594 C 17.789062 7.492188 19.960938 5.21875 24.027344 4.351562 C 25.03125 4.140625 25.964844 4.027344 26.839844 4 Z M 45.292969 8.027344 C 45.054688 8.269531 44.871094 8.472656 44.527344 8.777344 C 43.375 9.785156 41.667969 11.082031 39.601562 12.40625 C 35.472656 15.0625 29.890625 17.84375 24.339844 18.925781 C 18.074219 20.152344 13.820312 20.148438 11.183594 19.792969 C 9.863281 19.613281 8.941406 19.339844 8.394531 19.109375 C 8.332031 19.082031 8.328125 19.070312 8.273438 19.046875 C 8.464844 18.855469 8.703125 18.632812 9.125 18.367188 C 10.101562 17.75 11.734375 17.035156 13.855469 16.410156 C 14.136719 16.503906 14.886719 16.78125 16.6875 16.972656 C 18.78125 17.195312 21.84375 17.234375 25.765625 16.535156 C 33.519531 15.152344 38.496094 9.421875 38.929688 8.914062 C 39.152344 8.867188 40.867188 8.511719 42.800781 8.242188 C 43.722656 8.117188 44.59375 8.046875 45.292969 8.027344 Z M 37.109375 16.207031 C 37.0625 16.625 37.023438 17.082031 37 17.578125 C 37 17.589844 37 17.597656 37 17.609375 C 36.972656 19.132812 37.625 20.488281 38.179688 21.535156 C 38.457031 22.058594 38.71875 22.507812 38.875 22.8125 L 38.875 22.824219 C 38.839844 22.847656 38.816406 22.871094 38.777344 22.894531 C 38.546875 23.042969 38.328125 23.15625 38.328125 23.15625 C 38.058594 23.292969 37.867188 23.542969 37.800781 23.839844 C 37.707031 24.285156 37.558594 25.019531 37.34375 25.757812 C 37.125 26.492188 36.816406 27.230469 36.578125 27.546875 L 36.578125 27.550781 C 36.511719 27.636719 36.316406 27.773438 35.804688 27.871094 C 35.292969 27.96875 34.539062 28 33.625 28 C 32.355469 28 31.230469 28.277344 30.386719 28.96875 C 29.539062 29.664062 29.082031 30.734375 29 31.933594 C 29 31.957031 29 31.976562 29 32 C 29 33.519531 29.507812 34.761719 30.273438 35.699219 C 30.742188 36.269531 31.355469 36.609375 31.933594 37.015625 C 31.574219 37.335938 31.285156 37.667969 30.417969 38.046875 C 29.167969 38.589844 27.554688 39 26 39 C 21.78125 39 19.476562 37.300781 18.546875 36.535156 C 19.761719 35.40625 21.023438 33.902344 22.230469 31.871094 C 23.753906 29.304688 25.128906 26.140625 25.878906 22.738281 L 25.882812 22.730469 C 26.070312 21.925781 26.234375 21.222656 26.378906 20.507812 C 30.199219 19.554688 33.894531 17.960938 37.109375 16.207031 Z M 24.238281 20.976562 C 24.144531 21.382812 24.042969 21.808594 23.933594 22.292969 C 23.929688 22.292969 23.929688 22.296875 23.929688 22.300781 C 23.234375 25.457031 21.9375 28.445312 20.511719 30.847656 C 19.140625 33.15625 17.625 34.90625 16.554688 35.726562 C 16.488281 35.753906 13.945312 36.78125 11.25 37.886719 C 10.277344 38.285156 9.394531 38.652344 8.515625 39.019531 C 8.242188 38.558594 7.917969 37.578125 8.023438 36.609375 C 8.152344 35.441406 8.664062 34.421875 9.972656 33.9375 L 11.109375 33.515625 L 10.480469 32.480469 C 10.066406 31.804688 9.75 29.589844 10.417969 27.425781 C 11.070312 25.296875 12.515625 23.179688 15.25 21.988281 C 17.664062 21.945312 20.632812 21.65625 24.238281 20.976562 Z M 16.796875 37.789062 C 17.871094 38.683594 21.101562 41 26 41 C 27.894531 41 29.734375 40.527344 31.21875 39.878906 C 32.296875 39.410156 33.195312 38.925781 33.816406 38.265625 C 37.527344 40.117188 39.527344 42.273438 40.609375 43.988281 C 41.132812 44.820312 41.386719 45.46875 41.566406 46 L 4.136719 46 C 4.183594 45.378906 4.1875 44.710938 4.382812 44.21875 C 4.6875 43.449219 5.1875 42.792969 6.265625 42.15625 C 6.195312 42.199219 6.488281 42.046875 6.835938 41.894531 C 7.179688 41.746094 7.644531 41.546875 8.1875 41.320312 C 9.265625 40.867188 10.648438 40.292969 12.011719 39.734375 C 14.441406 38.742188 16.3125 37.984375 16.796875 37.789062 Z M 16.796875 37.789062 "/>
</g>
</svg>
