<?xml version="1.0" encoding="UTF-8"?>
<svg xmlns="http://www.w3.org/2000/svg" xmlns:xlink="http://www.w3.org/1999/xlink" width="55pt" height="55pt" viewBox="0 0 55 55" version="1.1">
<g id="surface233970">
<path style=" stroke:none;fill-rule:nonzero;fill:rgb(100%,100%,100%);fill-opacity:1;" d="M 49.363281 4.398438 C 49.253906 4.417969 49.152344 4.453125 49.054688 4.503906 L 5.054688 23.410156 C 4.664062 23.582031 4.410156 23.96875 4.398438 24.394531 C 4.390625 24.824219 4.636719 25.214844 5.019531 25.402344 L 21.414062 33.585938 L 29.597656 49.980469 C 29.785156 50.363281 30.175781 50.609375 30.605469 50.601562 C 31.03125 50.589844 31.417969 50.335938 31.589844 49.945312 L 50.496094 5.945312 C 50.660156 5.585938 50.617188 5.160156 50.382812 4.84375 C 50.148438 4.519531 49.757812 4.351562 49.363281 4.398438 Z M 44.6875 8.765625 L 22 31.453125 L 8.113281 24.507812 Z M 46.234375 10.3125 L 30.492188 46.886719 L 23.546875 33 Z M 46.234375 10.3125 "/>
</g>
</svg>
