<?xml version="1.0" encoding="UTF-8"?>
<svg xmlns="http://www.w3.org/2000/svg" xmlns:xlink="http://www.w3.org/1999/xlink" width="50pt" height="50pt" viewBox="0 0 50 50" version="1.1">
<g id="surface255673">
<path style=" stroke:none;fill-rule:nonzero;fill:rgb(100%,100%,100%);fill-opacity:1;" d="M 25 3 C 11.398438 3 8 15.300781 8 19 L 8 27 L 10 27 L 10 30 L 12.800781 30 C 14.128906 31.328125 16.113281 32.703125 17.867188 33.796875 C 18.664062 34.394531 19.371094 34.90625 20 35.34375 L 20 40 C 20 40.300781 19.898438 40.601562 19.597656 40.800781 L 17.597656 42.097656 L 6.699219 45 C 6.199219 45.101562 5.898438 45.699219 6 46.199219 C 6.101562 46.699219 6.699219 47 7.199219 46.902344 L 18.199219 43.902344 C 18.300781 43.902344 18.398438 43.800781 18.5 43.800781 L 20.699219 42.402344 C 20.699219 42.402344 20.800781 42.402344 20.800781 42.300781 C 21.5 41.699219 22 40.800781 22 39.902344 L 22 36.648438 C 23.804688 37.726562 24.570312 37.878906 24.949219 37.894531 L 25 38 L 25.050781 37.898438 C 25.066406 37.898438 25.085938 37.902344 25.097656 37.902344 C 25.414062 37.902344 26.078125 37.898438 28 36.777344 L 28 40 C 28 40.898438 28.398438 41.800781 29.199219 42.402344 C 29.199219 42.402344 29.300781 42.398438 29.300781 42.5 L 31.5 43.902344 C 31.601562 44 31.699219 44 31.800781 44 L 42.800781 47 L 43.097656 47 C 43.5 47 43.898438 46.699219 44.097656 46.300781 C 44.097656 45.699219 43.800781 45.199219 43.300781 45 L 32.402344 42 L 30.402344 40.699219 C 30.101562 40.597656 30 40.300781 30 40 L 30 35.480469 C 30.855469 34.894531 31.816406 34.210938 33 33.300781 C 33.101562 33.21875 33.207031 33.128906 33.3125 33.039062 C 34.730469 32.101562 36.160156 31.039062 37.199219 30 L 40 30 L 40 27 L 42 27 L 42 19 C 42 15.300781 38.601562 3 25 3 Z M 25 5 C 36.898438 5 40 15.601562 40 19 L 40 25 L 38 24 L 38 28 L 37 28 C 37 28 36.132812 28.730469 35.203125 29.496094 C 35.710938 27.976562 36.328125 25.835938 36.699219 23.300781 C 36.527344 22.785156 36.375 22.304688 36.21875 21.820312 C 36.039062 20.9375 35.777344 19.941406 35.402344 18.902344 C 34.800781 17.101562 34.101562 15.402344 33.902344 14.800781 L 32.902344 12.5 L 32.402344 15 C 32.199219 15.800781 31.898438 16.5 31.597656 17.097656 C 31.300781 14.597656 30.800781 11 30.800781 11 L 30.5 8.398438 L 29.402344 10.902344 C 28.5 13.300781 26.5 15.800781 25.097656 17.097656 L 26.097656 10.097656 C 26.097656 10.097656 22.199219 16 19.597656 18.5 L 19.597656 11.402344 L 18.402344 13.597656 C 17.300781 15.597656 14 22 13.597656 23 L 13.621094 23.089844 C 13.589844 23.171875 13.558594 23.242188 13.5 23.300781 C 13.867188 25.730469 14.507812 27.984375 15.136719 29.769531 C 14.089844 28.921875 13 28 13 28 L 12 28 L 12 24 L 10 25 L 10 19 C 10 15.601562 13.101562 5 25 5 Z M 29.597656 13.699219 C 29.898438 15.699219 30.199219 18.199219 30.300781 19.097656 L 30.402344 20 C 31.199219 19.699219 32.5 18.5 33.097656 17.199219 C 33.757812 19.101562 34.460938 21.257812 34.71875 22.675781 C 34.28125 25.855469 33.414062 28.878906 32.597656 30.800781 C 32.398438 31.199219 32.097656 31.5 31.699219 31.902344 C 27.398438 35.101562 25.398438 36 25 36 C 24.601562 36 22.601562 35.101562 18.402344 31.800781 C 18.101562 31.5 17.800781 31.097656 17.597656 30.699219 C 16.90625 29.144531 15.84375 26.089844 15.375 22.640625 C 15.816406 21.734375 16.882812 19.652344 18.097656 17.300781 C 18.097656 17.300781 18 20.199219 18 21 C 19.398438 20.898438 22.597656 17.699219 23.699219 15.902344 L 23 20.699219 L 24.5 19.597656 C 24.601562 19.5 27.597656 17.199219 29.597656 13.699219 Z M 16 22 C 16 22 16.300781 23 17 23.597656 L 17 24 C 17 24.601562 17.5 25.898438 18 26 L 21 26 C 21.5 25.800781 22 24.601562 22 24 L 22 23 C 21.699219 22.800781 20.5 22.199219 17.5 22 Z M 32.5 22 C 29.5 22.101562 28.300781 22.699219 28 23 L 28 24 C 28 24.601562 28.5 25.800781 29 26 L 32 26 C 32.5 25.898438 33 24.601562 33 24 L 33 23.597656 C 33.699219 23 34 22 34 22 Z M 20.5 23 C 20.800781 23 21 23.199219 21 23.5 C 21 23.800781 20.800781 24 20.5 24 C 20.199219 24 20 23.800781 20 23.5 C 20 23.199219 20.199219 23 20.5 23 Z M 31.5 23 C 31.800781 23 32 23.199219 32 23.5 C 32 23.800781 31.800781 24 31.5 24 C 31.199219 24 31 23.800781 31 23.5 C 31 23.199219 31.199219 23 31.5 23 Z M 25 31 C 23.601562 31 23 31.699219 23 32 L 27 32 C 27 31.800781 26.398438 31 25 31 Z M 25 31 "/>
</g>
</svg>
