<?xml version="1.0" encoding="UTF-8"?>
<svg xmlns="http://www.w3.org/2000/svg" xmlns:xlink="http://www.w3.org/1999/xlink" width="50pt" height="50pt" viewBox="0 0 50 50" version="1.1">
<g id="surface258826">
<path style=" stroke:none;fill-rule:nonzero;fill:rgb(100%,100%,100%);fill-opacity:1;" d="M 0 6 L 0 42 L 32 42 L 32 40 L 2 40 L 2 37.511719 L 16.652344 25.925781 C 17.875 26.988281 20.074219 28.90625 20.351562 29.148438 C 22.054688 30.628906 23.855469 30.996094 25 30.996094 C 26.144531 30.996094 27.945312 30.628906 29.644531 29.148438 C 29.925781 28.90625 32.125 26.988281 33.339844 25.929688 L 41.410156 32.347656 L 42.832031 30.925781 L 34.875 24.59375 C 40.113281 20.023438 46.257812 14.671875 48 13.152344 L 48 31.757812 L 50 33.757812 L 50 6 Z M 2 8 L 48 8 L 48 10.503906 C 47.574219 10.875 29.8125 26.355469 28.335938 27.640625 C 27.039062 28.773438 25.71875 29 25 29 C 24.285156 29 22.960938 28.773438 21.664062 27.640625 C 20.1875 26.355469 2.425781 10.875 2 10.503906 Z M 2 13.152344 C 3.542969 14.496094 9.878906 20.019531 15.121094 24.589844 L 2 34.964844 Z M 34.984375 31.988281 C 34.433594 31.996094 33.992188 32.449219 34 33 L 34 46.585938 L 31.707031 44.292969 C 31.519531 44.097656 31.261719 43.992188 30.992188 43.992188 C 30.582031 43.992188 30.21875 44.238281 30.0625 44.613281 C 29.910156 44.992188 30 45.421875 30.292969 45.707031 L 34.207031 49.621094 C 34.394531 49.867188 34.6875 50.011719 35 50.011719 C 35.3125 50.011719 35.609375 49.867188 35.796875 49.617188 L 39.707031 45.707031 C 39.96875 45.457031 40.074219 45.082031 39.980469 44.734375 C 39.890625 44.382812 39.617188 44.109375 39.265625 44.019531 C 38.917969 43.925781 38.542969 44.03125 38.292969 44.292969 L 36 46.585938 L 36 33 C 36.003906 32.730469 35.898438 32.46875 35.707031 32.277344 C 35.515625 32.085938 35.253906 31.980469 34.984375 31.988281 Z M 44.984375 31.988281 C 44.675781 31.992188 44.390625 32.136719 44.203125 32.382812 L 40.292969 36.292969 C 40.03125 36.542969 39.925781 36.917969 40.019531 37.265625 C 40.109375 37.617188 40.382812 37.890625 40.734375 37.980469 C 41.082031 38.074219 41.457031 37.96875 41.707031 37.707031 L 44 35.414062 L 44 49 C 43.996094 49.359375 44.183594 49.695312 44.496094 49.878906 C 44.808594 50.058594 45.191406 50.058594 45.503906 49.878906 C 45.816406 49.695312 46.003906 49.359375 46 49 L 46 35.414062 L 48.292969 37.707031 C 48.542969 37.96875 48.917969 38.074219 49.265625 37.980469 C 49.617188 37.890625 49.890625 37.617188 49.980469 37.265625 C 50.074219 36.917969 49.96875 36.542969 49.707031 36.292969 L 45.789062 32.375 C 45.597656 32.125 45.300781 31.980469 44.984375 31.984375 Z M 44.984375 31.988281 "/>
</g>
</svg>
