<svg xmlns="http://www.w3.org/2000/svg" viewBox="0 0 100 100" width="100px" height="100px"><path fill="#ead6c7" d="M77.551,48.787C79.176,49.544,80,50.474,80,51.549c0,1.785-0.79,5.257-1.573,7.906L78.21,60.2	c-0.717,2.484-1.457,5.05-3.685,5.685L74,66v6c0,3.75-10.5,18-24,18S26,75.75,26,72v-6l-0.526-0.115	c-2.228-0.635-2.968-3.2-3.685-5.685l-0.217-0.745C20.79,56.806,20,53.334,20,51.549c0-1.075,0.824-2.005,2.449-2.762	C22.449,48.787,21,17,51,17S77.551,48.787,77.551,48.787z"/><path fill="#1f212b" d="M50,71c-3.377,0-4.853-2.129-4.915-2.22c-0.154-0.229-0.094-0.54,0.135-0.694	c0.229-0.153,0.538-0.095,0.693,0.133l0,0C45.963,68.291,47.176,70,50,70s4.037-1.709,4.087-1.782	c0.156-0.227,0.466-0.287,0.694-0.13c0.227,0.155,0.287,0.463,0.133,0.691C54.853,68.871,53.377,71,50,71z"/><path fill="#b07454" d="M52,10c-14.211,0-20.211,7.036-21,9c-6.251,2.643-11,10.143-11,18c0,12.572,6,17,6,17	c0-14.143,8-22.286,8-27c2.847,4.487,10.684,8,19,8c8.092,0,12.25-1.839,16-4c4.737,6.286,6,23,6,23s5-5.571,5-15c0-8-5-12-5-12	c2-1,4-4.036,4-6C71.895,21,67,10,52,10z"/><path fill="#1f212b" d="M75,55c-0.108,0-0.216-0.018-0.322-0.053c-0.379-0.129-0.645-0.472-0.675-0.871	c-0.012-0.158-1.201-15.287-5.306-21.755C65.227,34.244,60.98,36,53,36c-7.325,0-14.618-2.715-18.421-6.67	c-0.451,1.405-1.223,2.979-2.112,4.792C30.16,38.824,27,45.265,27,54c0,0.377-0.212,0.723-0.549,0.893	c-0.337,0.169-0.74,0.137-1.044-0.088C25.145,54.611,19,49.928,19,37c0-7.978,4.715-15.8,11.262-18.769C31.608,15.76,37.853,9,52,9	c9.208,0,14.729,3.99,19.164,7.195C74.104,18.321,76.427,20,79,20c0.552,0,1,0.448,1,1c0,1.98-1.54,4.641-3.409,6.148	C78.142,28.823,81,32.757,81,39c0,9.7-5.041,15.429-5.256,15.668C75.551,54.883,75.279,55,75,55z M52,11	c-13.734,0-19.404,6.711-20.072,8.373c-0.099,0.247-0.293,0.444-0.538,0.548C25.37,22.467,21,29.65,21,37	c0,7.823,2.42,12.362,4.078,14.553c0.51-7.952,3.417-13.877,5.593-18.313C31.973,30.588,33,28.494,33,27	c0-0.445,0.294-0.836,0.721-0.96c0.428-0.123,0.885,0.049,1.123,0.425C37.615,30.831,45.25,34,53,34	c8.111,0,12.105-1.91,15.501-3.867c0.436-0.25,0.993-0.14,1.298,0.265c3.724,4.942,5.351,15.729,5.93,20.805	C77.122,48.847,79,44.627,79,39c0-7.434-4.579-11.182-4.625-11.219c-0.267-0.213-0.406-0.547-0.37-0.886	c0.036-0.339,0.242-0.636,0.547-0.789c1.359-0.679,2.828-2.625,3.295-4.189c-2.727-0.393-5.128-2.128-7.856-4.1	C65.791,14.779,60.562,11,52,11z"/><path fill="#1f212b" d="M39,48c-1.366,0-2.506,1.225-2.869,2.891C36.365,50.367,36.889,50,37.5,50c0.828,0,1.5,0.672,1.5,1.5	S38.328,53,37.5,53c-0.755,0-1.374-0.56-1.478-1.286C36.016,51.81,36,51.902,36,52c0,2.209,1.343,4,3,4s3-1.791,3-4	C42,49.791,40.657,48,39,48z"/><path fill="#1f212b" d="M61,48c-1.366,0-2.506,1.225-2.869,2.891C58.365,50.367,58.889,50,59.5,50c0.828,0,1.5,0.672,1.5,1.5	S60.328,53,59.5,53c-0.755,0-1.374-0.56-1.478-1.286C58.016,51.81,58,51.902,58,52c0,2.209,1.343,4,3,4s3-1.791,3-4	C64,49.791,62.657,48,61,48z"/><path fill="#1f212b" d="M33.921,44.907l-0.847-1.812C33.169,43.05,35.454,42,40,42s6.831,1.05,6.926,1.095l-0.852,1.81	C46.06,44.898,44.046,44,40,44S33.94,44.898,33.921,44.907z"/><path fill="#1f212b" d="M66.079,44.907C66.06,44.898,64.046,44,60,44s-6.06,0.898-6.079,0.907l-0.847-1.812	C53.169,43.05,55.454,42,60,42s6.831,1.05,6.926,1.095L66.079,44.907z"/><path fill="#1f212b" d="M61.879,75.175c-0.179-0.21-0.495-0.231-0.705-0.055C61.141,75.149,57.726,78,50,78	c-7.686,0-11.142-2.852-11.176-2.881c-0.21-0.177-0.525-0.152-0.704,0.057c-0.162,0.191-0.149,0.464,0.01,0.647l-0.007,0.006	C38.273,76,41.867,80,50,80s11.727-4,11.876-4.171l-0.008-0.005C62.03,75.64,62.044,75.365,61.879,75.175z"/><path fill="#1f212b" d="M33.161,25c-0.188,0-0.367-0.105-0.452-0.286c-0.591-1.248-1.343-3.222-1.566-5.539l0.013-0.004	c-0.074-0.204-0.01-0.44,0.174-0.574c0.223-0.164,0.535-0.115,0.699,0.107c0.085,0.116,0.095,0.213,0.11,0.375	c0.209,2.173,0.917,4.031,1.474,5.206c0.119,0.25,0.012,0.548-0.237,0.666C33.306,24.984,33.233,25,33.161,25z"/><path fill="#1f212b" d="M53,31c-6.306,0-11.27-2.181-13.813-4.222c-0.215-0.173-0.25-0.488-0.077-0.703	c0.173-0.214,0.488-0.249,0.703-0.077C42.113,27.844,46.947,30,53,30c3.285,0,6.019-0.336,8.358-1.029	c0.265-0.079,0.543,0.073,0.622,0.337c0.078,0.265-0.073,0.543-0.337,0.622C59.208,30.65,56.382,31,53,31z"/><path fill="#1f212b" d="M36.5,19.751c-0.139,0-0.277-0.058-0.376-0.17c-0.182-0.208-0.162-0.523,0.046-0.706	C37.84,17.409,42.725,14,52,14c3.135,0,5.979,0.551,8.693,1.686c0.255,0.106,0.375,0.399,0.269,0.654	c-0.107,0.255-0.4,0.374-0.654,0.269C57.718,15.526,55,15,52,15c-8.935,0-13.585,3.236-15.17,4.627	C36.735,19.71,36.617,19.751,36.5,19.751z"/><path fill="#1f212b" d="M66.5,20.12c-0.1,0-0.2-0.03-0.288-0.092c-0.645-0.455-1.302-0.903-1.98-1.335	c-0.233-0.148-0.302-0.458-0.153-0.69c0.149-0.233,0.459-0.301,0.69-0.153c0.691,0.44,1.362,0.897,2.02,1.362	c0.226,0.159,0.279,0.471,0.12,0.697C66.811,20.046,66.657,20.12,66.5,20.12z"/><path fill="#1f212b" d="M69.5,22.264c-0.099,0-0.199-0.029-0.287-0.091c-0.336-0.236-0.672-0.472-1.005-0.712	c-0.224-0.161-0.275-0.474-0.114-0.698s0.474-0.275,0.698-0.114c0.33,0.237,0.662,0.471,0.995,0.705	c0.226,0.158,0.281,0.47,0.122,0.696C69.812,22.189,69.657,22.264,69.5,22.264z"/><path fill="#1f212b" d="M50,91c-13.751,0-25-14.345-25-19v-5.22c-2.614-0.906-3.44-3.768-4.171-6.302l-0.216-0.743	C19.869,57.219,19,53.562,19,51.549c0-1.459,0.966-2.668,2.871-3.594l0.874,1.799C21.949,50.141,21,50.766,21,51.549	c0,1.675,0.794,5.125,1.532,7.623l0.218,0.749c0.671,2.325,1.304,4.519,2.999,5.002l0.466,0.1C26.673,65.124,27,65.53,27,66v6	c0,3.332,10.333,17,23,17s23-13.668,23-17v-6c0-0.47,0.327-0.876,0.786-0.977l0.526-0.115c1.634-0.468,2.268-2.662,2.938-4.985	l0.218-0.747C78.206,56.674,79,53.224,79,51.549c0-0.578-0.503-1.14-1.496-1.669l0.94-1.765C80.557,49.241,81,50.604,81,51.549	c0,2.013-0.869,5.67-1.614,8.189l-0.216,0.741c-0.735,2.55-1.568,5.435-4.17,6.305V72C75,76.655,63.751,91,50,91z"/></svg>