<?xml version="1.0" encoding="UTF-8"?>
<svg xmlns="http://www.w3.org/2000/svg" xmlns:xlink="http://www.w3.org/1999/xlink" width="50pt" height="50pt" viewBox="0 0 50 50" version="1.1">
<g id="surface257323">
<path style=" stroke:none;fill-rule:nonzero;fill:rgb(100%,100%,100%);fill-opacity:1;" d="M 8 8 C 5.800781 8 4 9.800781 4 12 L 4 34 C 4 34.730469 4.214844 35.410156 4.558594 36 L 2 36 C 1.449219 36 1 36.449219 1 37 C 1 39.75 3.25 42 6 42 L 44 42 C 46.75 42 49 39.75 49 37 C 49 36.449219 48.550781 36 48 36 L 45.441406 36 C 45.785156 35.410156 46 34.730469 46 34 L 46 12 C 46 9.800781 44.199219 8 42 8 Z M 8 10 L 42 10 C 43.117188 10 44 10.882812 44 12 L 44 34 C 44 35.117188 43.117188 36 42 36 L 8 36 C 6.882812 36 6 35.117188 6 34 L 6 12 C 6 10.882812 6.882812 10 8 10 Z M 25 15 C 20.59375 15 17 18.59375 17 23 C 17 27.40625 20.59375 31 25 31 C 29.40625 31 33 27.40625 33 23 C 33 18.59375 29.40625 15 25 15 Z M 25 17 C 28.324219 17 31 19.675781 31 23 C 31 26.324219 28.324219 29 25 29 C 21.675781 29 19 26.324219 19 23 C 19 19.675781 21.675781 17 25 17 Z M 25 20 C 23.34375 20 22 21.34375 22 23 C 22 24.65625 23.34375 26 25 26 C 26.65625 26 28 24.65625 28 23 C 28 22.910156 27.980469 22.824219 27.972656 22.738281 C 27.683594 22.898438 27.355469 23 27 23 C 25.894531 23 25 22.105469 25 21 C 25 20.644531 25.101562 20.316406 25.261719 20.027344 C 25.175781 20.019531 25.089844 20 25 20 Z M 3.414062 38 L 46.589844 38 C 46.152344 39.113281 45.277344 40 44 40 L 6 40 C 4.722656 40 3.847656 39.113281 3.414062 38 Z M 3.414062 38 "/>
</g>
</svg>
