<?xml version="1.0" encoding="UTF-8"?>
<svg xmlns="http://www.w3.org/2000/svg" xmlns:xlink="http://www.w3.org/1999/xlink" width="45pt" height="45pt" viewBox="0 0 45 45" version="1.1">
<g id="surface311547">
<path style=" stroke:none;fill-rule:nonzero;fill:rgb(100%,100%,100%);fill-opacity:1;" d="M 36 0 C 31.078125 0 27.058594 3.980469 27 8.886719 L 14.316406 15.242188 C 12.824219 14.148438 10.988281 13.5 9 13.5 C 4.039062 13.5 0 17.539062 0 22.5 C 0 27.460938 4.039062 31.5 9 31.5 C 10.988281 31.5 12.824219 30.851562 14.316406 29.757812 L 27 36.113281 C 27.058594 41.019531 31.078125 45 36 45 C 40.960938 45 45 40.960938 45 36 C 45 31.039062 40.960938 27 36 27 C 34.085938 27 32.3125 27.609375 30.851562 28.632812 L 18.5625 22.5 L 30.851562 16.367188 C 32.3125 17.390625 34.085938 18 36 18 C 40.960938 18 45 13.960938 45 9 C 45 4.039062 40.960938 0 36 0 Z M 36 1.800781 C 39.988281 1.800781 43.199219 5.011719 43.199219 9 C 43.199219 12.988281 39.988281 16.199219 36 16.199219 C 34.527344 16.199219 33.171875 15.742188 32.035156 14.992188 C 31.921875 14.613281 31.582031 14.355469 31.191406 14.34375 C 31.1875 14.339844 31.167969 14.347656 31.164062 14.34375 C 29.90625 13.207031 29.0625 11.621094 28.855469 9.84375 C 29.046875 9.527344 29.023438 9.125 28.800781 8.832031 C 28.890625 4.925781 32.070312 1.800781 36 1.800781 Z M 27.195312 10.800781 C 27.53125 12.425781 28.304688 13.894531 29.390625 15.074219 L 17.832031 20.867188 C 17.527344 19.222656 16.789062 17.738281 15.722656 16.539062 Z M 9 15.300781 C 10.667969 15.300781 12.199219 15.847656 13.414062 16.789062 C 13.425781 16.796875 13.433594 16.8125 13.445312 16.820312 C 13.449219 16.835938 13.460938 16.855469 13.472656 16.875 C 13.550781 16.96875 13.644531 17.042969 13.753906 17.101562 C 13.757812 17.105469 13.777344 17.097656 13.78125 17.101562 C 15.128906 18.296875 16.015625 20 16.171875 21.910156 C 16.070312 22.15625 16.082031 22.433594 16.199219 22.667969 C 16.183594 22.742188 16.171875 22.816406 16.171875 22.894531 C 16.0625 24.890625 15.15625 26.667969 13.753906 27.898438 C 13.667969 27.953125 13.589844 28.019531 13.527344 28.097656 C 12.289062 29.097656 10.722656 29.699219 9 29.699219 C 5.011719 29.699219 1.800781 26.488281 1.800781 22.5 C 1.800781 18.511719 5.011719 15.300781 9 15.300781 Z M 17.832031 24.132812 L 29.390625 29.925781 C 28.304688 31.105469 27.53125 32.574219 27.195312 34.199219 L 15.722656 28.460938 C 16.789062 27.261719 17.527344 25.777344 17.832031 24.132812 Z M 36 28.800781 C 39.988281 28.800781 43.199219 32.011719 43.199219 36 C 43.199219 39.988281 39.988281 43.199219 36 43.199219 C 32.011719 43.199219 28.800781 39.988281 28.800781 36 C 28.800781 33.835938 29.742188 31.890625 31.246094 30.570312 C 31.269531 30.554688 31.285156 30.535156 31.304688 30.515625 C 31.308594 30.511719 31.328125 30.519531 31.332031 30.515625 C 31.476562 30.457031 31.601562 30.355469 31.695312 30.234375 C 32.898438 29.339844 34.378906 28.800781 36 28.800781 Z M 36 28.800781 "/>
</g>
</svg>
